<svg xmlns="http://www.w3.org/2000/svg" viewBox="0 0 400 500" width="400" height="500">
  <defs>
    <radialGradient id="bg1" cx="50%" cy="40%" r="60%">
      <stop offset="0%" stop-color="#FFF5E8"/>
      <stop offset="100%" stop-color="#F0E0C8"/>
    </radialGradient>
    <radialGradient id="skin1" cx="50%" cy="40%" r="60%">
      <stop offset="0%" stop-color="#FDDBB4"/>
      <stop offset="100%" stop-color="#F5C490"/>
    </radialGradient>
    <radialGradient id="skin2" cx="50%" cy="40%" r="60%">
      <stop offset="0%" stop-color="#FDE0C8"/>
      <stop offset="100%" stop-color="#F8C8A8"/>
    </radialGradient>
    <filter id="shadow1" x="-20%" y="-20%" width="140%" height="140%">
      <feDropShadow dx="0" dy="4" stdDeviation="8" flood-color="rgba(0,0,0,0.12)"/>
    </filter>
    <clipPath id="oval1">
      <ellipse cx="200" cy="200" rx="185" ry="230"/>
    </clipPath>
  </defs>

  <!-- 배경 타원 -->
  <ellipse cx="200" cy="260" rx="185" ry="230" fill="url(#bg1)" filter="url(#shadow1)"/>

  <!-- 골드 테두리 -->
  <ellipse cx="200" cy="260" rx="185" ry="230" fill="none" stroke="#C9A96E" stroke-width="2" opacity="0.6"/>
  <ellipse cx="200" cy="260" rx="178" ry="223" fill="none" stroke="#C9A96E" stroke-width="0.8" opacity="0.3"/>

  <!-- ── 신랑 (왼쪽) ── -->
  <!-- 몸통 / 수트 -->
  <ellipse cx="130" cy="430" rx="58" ry="80" fill="#2C3E50"/>
  <!-- 셔츠 흰색 -->
  <ellipse cx="130" cy="395" rx="22" ry="35" fill="#FAFAFA"/>
  <!-- 넥타이 -->
  <polygon points="130,375 124,395 130,405 136,395" fill="#C9A96E"/>
  <!-- 수트 칼라 -->
  <path d="M108,375 Q130,390 152,375 L152,410 Q130,400 108,410 Z" fill="#34495E" opacity="0.8"/>

  <!-- 신랑 목 -->
  <rect x="118" y="340" width="24" height="30" rx="8" fill="url(#skin1)"/>

  <!-- 신랑 얼굴 -->
  <ellipse cx="130" cy="315" rx="42" ry="50" fill="url(#skin1)"/>

  <!-- 신랑 머리카락 (짧은 올백) -->
  <ellipse cx="130" cy="278" rx="42" ry="28" fill="#2C2420"/>
  <path d="M88,295 Q90,270 130,265 Q170,270 172,295" fill="#2C2420"/>
  <!-- 머리 윤곽 하이라이트 -->
  <ellipse cx="120" cy="278" rx="15" ry="10" fill="#4A3830" opacity="0.5"/>

  <!-- 신랑 눈썹 -->
  <path d="M112,303 Q120,298 128,302" stroke="#2C2420" stroke-width="2.5" fill="none" stroke-linecap="round"/>
  <path d="M132,302 Q140,298 148,303" stroke="#2C2420" stroke-width="2.5" fill="none" stroke-linecap="round"/>

  <!-- 신랑 눈 -->
  <ellipse cx="120" cy="310" rx="8" ry="6" fill="white"/>
  <ellipse cx="140" cy="310" rx="8" ry="6" fill="white"/>
  <circle cx="121" cy="310" r="4" fill="#2C2420"/>
  <circle cx="141" cy="310" r="4" fill="#2C2420"/>
  <circle cx="122" cy="308" r="1.5" fill="white"/>
  <circle cx="142" cy="308" r="1.5" fill="white"/>

  <!-- 신랑 코 -->
  <path d="M130,316 Q126,324 124,328 Q130,332 136,328 Q134,324 130,316Z" fill="#E8A878" opacity="0.7"/>

  <!-- 신랑 미소 -->
  <path d="M118,333 Q130,342 142,333" stroke="#C07050" stroke-width="2" fill="none" stroke-linecap="round"/>

  <!-- 신랑 귀 -->
  <ellipse cx="88" cy="315" rx="7" ry="10" fill="url(#skin1)"/>
  <ellipse cx="172" cy="315" rx="7" ry="10" fill="url(#skin1)"/>

  <!-- ── 신부 (오른쪽) ── -->
  <!-- 드레스 -->
  <path d="M220,370 Q270,360 320,370 L340,490 L200,490 Z" fill="white"/>
  <path d="M220,370 Q270,355 320,370" fill="none" stroke="#C9A96E" stroke-width="1.5" opacity="0.6"/>
  <!-- 드레스 레이스 디테일 -->
  <path d="M205,400 Q270,395 335,400" fill="none" stroke="#C9A96E" stroke-width="0.8" opacity="0.4"/>
  <path d="M202,420 Q270,415 338,420" fill="none" stroke="#C9A96E" stroke-width="0.8" opacity="0.4"/>
  <!-- 드레스 허리 리본 -->
  <ellipse cx="270" cy="380" rx="30" ry="8" fill="#F8F0E8"/>
  <ellipse cx="270" cy="380" rx="18" ry="5" fill="#C9A96E" opacity="0.4"/>

  <!-- 신부 목 -->
  <rect x="258" y="335" width="24" height="32" rx="8" fill="url(#skin2)"/>

  <!-- 신부 얼굴 -->
  <ellipse cx="270" cy="308" rx="40" ry="48" fill="url(#skin2)"/>

  <!-- 신부 머리카락 (긴 웨이브) -->
  <ellipse cx="270" cy="272" rx="42" ry="25" fill="#3D2B1F"/>
  <path d="M230,285 Q225,320 228,360 Q235,350 234,310 Q232,295 235,285" fill="#3D2B1F"/>
  <path d="M310,285 Q315,320 312,360 Q305,350 306,310 Q308,295 305,285" fill="#3D2B1F"/>
  <!-- 앞머리 웨이브 -->
  <path d="M228,285 Q240,270 255,278 Q265,268 270,272 Q278,265 290,275 Q305,270 312,285"
        fill="#3D2B1F"/>
  <!-- 머리 하이라이트 -->
  <path d="M248,272 Q262,265 275,270" stroke="#6B4A35" stroke-width="3" fill="none" opacity="0.5"/>

  <!-- 신부 눈썹 (가는 아치) -->
  <path d="M252,295 Q260,290 268,294" stroke="#3D2B1F" stroke-width="1.8" fill="none" stroke-linecap="round"/>
  <path d="M272,294 Q280,290 288,295" stroke="#3D2B1F" stroke-width="1.8" fill="none" stroke-linecap="round"/>

  <!-- 신부 눈 (큰 눈) -->
  <ellipse cx="260" cy="303" rx="9" ry="7" fill="white"/>
  <ellipse cx="280" cy="303" rx="9" ry="7" fill="white"/>
  <circle cx="261" cy="303" r="5" fill="#3D2B1F"/>
  <circle cx="281" cy="303" r="5" fill="#3D2B1F"/>
  <circle cx="262" cy="301" r="2" fill="white"/>
  <circle cx="282" cy="301" r="2" fill="white"/>
  <!-- 속눈썹 -->
  <path d="M251,298 Q255,294 260,296" stroke="#3D2B1F" stroke-width="1.5" fill="none"/>
  <path d="M280,296 Q285,294 289,298" stroke="#3D2B1F" stroke-width="1.5" fill="none"/>

  <!-- 신부 코 -->
  <path d="M270,310 Q266,318 264,321 Q270,325 276,321 Q274,318 270,310Z" fill="#E8B090" opacity="0.6"/>

  <!-- 신부 볼터치 -->
  <ellipse cx="248" cy="315" rx="12" ry="7" fill="#F4A0A0" opacity="0.3"/>
  <ellipse cx="292" cy="315" rx="12" ry="7" fill="#F4A0A0" opacity="0.3"/>

  <!-- 신부 입술 (립스틱) -->
  <path d="M262,325 Q270,322 278,325 Q270,332 262,325Z" fill="#D45870"/>
  <path d="M262,325 Q270,328 278,325" fill="none" stroke="#C04060" stroke-width="1"/>

  <!-- 신부 귀 -->
  <ellipse cx="230" cy="308" rx="6" ry="9" fill="url(#skin2)"/>
  <ellipse cx="310" cy="308" rx="6" ry="9" fill="url(#skin2)"/>
  <!-- 귀걸이 -->
  <circle cx="230" cy="320" r="4" fill="#C9A96E"/>
  <circle cx="310" cy="320" r="4" fill="#C9A96E"/>

  <!-- 신부 베일 -->
  <path d="M228,272 Q200,300 205,380 Q210,370 215,340 Q218,310 225,285" fill="white" opacity="0.5"/>
  <path d="M228,272 Q225,275 224,285" stroke="#C9A96E" stroke-width="0.8" fill="none" opacity="0.4"/>

  <!-- ── 가운데 하트 ── -->
  <g transform="translate(200, 420)">
    <path d="M0,-12 C-4,-20 -16,-20 -16,-8 C-16,0 0,12 0,12 C0,12 16,0 16,-8 C16,-20 4,-20 0,-12Z"
          fill="#C9A96E" opacity="0.8"/>
  </g>

  <!-- ── 장식 꽃 (상단) ── -->
  <g transform="translate(200, 50)" opacity="0.7">
    <circle cx="0" cy="0" r="6" fill="#C9A96E"/>
    <ellipse cx="0" cy="-14" rx="5" ry="8" fill="#E8C8A0" transform="rotate(0)"/>
    <ellipse cx="0" cy="-14" rx="5" ry="8" fill="#E8C8A0" transform="rotate(45)"/>
    <ellipse cx="0" cy="-14" rx="5" ry="8" fill="#E8C8A0" transform="rotate(90)"/>
    <ellipse cx="0" cy="-14" rx="5" ry="8" fill="#E8C8A0" transform="rotate(135)"/>
    <ellipse cx="0" cy="-14" rx="5" ry="8" fill="#F0D8B0" transform="rotate(22.5)"/>
    <ellipse cx="0" cy="-14" rx="5" ry="8" fill="#F0D8B0" transform="rotate(67.5)"/>
    <ellipse cx="0" cy="-14" rx="5" ry="8" fill="#F0D8B0" transform="rotate(112.5)"/>
    <ellipse cx="0" cy="-14" rx="5" ry="8" fill="#F0D8B0" transform="rotate(157.5)"/>
    <circle cx="0" cy="0" r="5" fill="#C9A96E"/>
  </g>

  <!-- ── 하단 텍스트 ── -->
  <text x="200" y="478" text-anchor="middle" font-family="Georgia, serif" font-size="13"
        fill="#8B6F47" letter-spacing="3" opacity="0.8">Our First Date</text>
</svg>
